<mxfile host="Electron" agent="Mozilla/5.0 (Windows NT 10.0; Win64; x64) AppleWebKit/537.36 (KHTML, like Gecko) draw.io/24.7.17 Chrome/128.0.6613.36 Electron/32.0.1 Safari/537.36" version="24.7.17">
  <diagram name="Page-1" id="jKyfvzH5kp16OkTh2Ic6">
    <mxGraphModel dx="1021" dy="1675" grid="1" gridSize="10" guides="1" tooltips="1" connect="1" arrows="1" fold="1" page="1" pageScale="1" pageWidth="827" pageHeight="1169" math="0" shadow="0">
      <root>
        <mxCell id="0" />
        <mxCell id="1" parent="0" />
        <mxCell id="ZAjExNN5BYccUUgoJWdT-1" value="&lt;div&gt;&lt;br&gt;&lt;/div&gt;" style="text;html=1;align=center;verticalAlign=middle;resizable=0;points=[];autosize=1;strokeColor=none;fillColor=none;" parent="1" vertex="1">
          <mxGeometry x="20" y="48" width="20" height="30" as="geometry" />
        </mxCell>
        <mxCell id="ZAjExNN5BYccUUgoJWdT-2" value="&lt;span style=&quot;text-wrap: nowrap;&quot;&gt;Réception des ordres des chefs de partie&lt;/span&gt;" style="rounded=1;whiteSpace=wrap;html=1;fillColor=#A9C4EB;" parent="1" vertex="1">
          <mxGeometry x="440" y="-80" width="230" height="40" as="geometry" />
        </mxCell>
        <mxCell id="ZAjExNN5BYccUUgoJWdT-3" value="&lt;span style=&quot;text-wrap: nowrap;&quot;&gt;Tâches à exécuter définies ?&lt;/span&gt;" style="rounded=1;whiteSpace=wrap;html=1;fillColor=#A9C4EB;" parent="1" vertex="1">
          <mxGeometry x="440" y="-10" width="230" height="40" as="geometry" />
        </mxCell>
        <mxCell id="ZAjExNN5BYccUUgoJWdT-4" value="" style="rhombus;whiteSpace=wrap;html=1;fillColor=#FFFFFF;" parent="1" vertex="1">
          <mxGeometry x="542.5" y="60" width="25" height="30" as="geometry" />
        </mxCell>
        <mxCell id="ZAjExNN5BYccUUgoJWdT-5" value="Préparation des ingrédients (épluchage, découpage, etc..)" style="rounded=1;whiteSpace=wrap;html=1;fillColor=#A9C4EB;" parent="1" vertex="1">
          <mxGeometry x="422.5" y="100" width="120" height="60" as="geometry" />
        </mxCell>
        <mxCell id="ZAjExNN5BYccUUgoJWdT-7" value="Demande d&#39;instructions aux chefs de parties" style="rounded=1;whiteSpace=wrap;html=1;fillColor=#A9C4EB;" parent="1" vertex="1">
          <mxGeometry x="590" y="100" width="120" height="60" as="geometry" />
        </mxCell>
        <mxCell id="ZAjExNN5BYccUUgoJWdT-8" value="Aide aux chefs de parties" style="rounded=1;whiteSpace=wrap;html=1;fillColor=#A9C4EB;" parent="1" vertex="1">
          <mxGeometry x="423" y="190" width="120" height="60" as="geometry" />
        </mxCell>
        <mxCell id="08N1hVpITittfZkWKEES-4" value="" style="edgeStyle=orthogonalEdgeStyle;rounded=0;orthogonalLoop=1;jettySize=auto;html=1;" edge="1" parent="1" target="ZAjExNN5BYccUUgoJWdT-10">
          <mxGeometry relative="1" as="geometry">
            <mxPoint x="483" y="360" as="sourcePoint" />
          </mxGeometry>
        </mxCell>
        <mxCell id="ZAjExNN5BYccUUgoJWdT-9" value="Les tâches sont-elles terminées?" style="rounded=1;whiteSpace=wrap;html=1;fillColor=#A9C4EB;" parent="1" vertex="1">
          <mxGeometry x="423" y="280" width="120" height="60" as="geometry" />
        </mxCell>
        <mxCell id="ZAjExNN5BYccUUgoJWdT-10" value="Transmission des plats" style="rounded=1;whiteSpace=wrap;html=1;fillColor=#A9C4EB;" parent="1" vertex="1">
          <mxGeometry x="423" y="380" width="120" height="60" as="geometry" />
        </mxCell>
        <mxCell id="ZAjExNN5BYccUUgoJWdT-11" value="Poursuite des préparations" style="rounded=1;whiteSpace=wrap;html=1;fillColor=#A9C4EB;" parent="1" vertex="1">
          <mxGeometry x="590" y="380" width="120" height="60" as="geometry" />
        </mxCell>
        <mxCell id="ZAjExNN5BYccUUgoJWdT-13" value="" style="endArrow=none;html=1;rounded=0;exitX=1;exitY=0.5;exitDx=0;exitDy=0;" parent="1" source="08N1hVpITittfZkWKEES-1" edge="1">
          <mxGeometry width="50" height="50" relative="1" as="geometry">
            <mxPoint x="600" y="310" as="sourcePoint" />
            <mxPoint x="640" y="310" as="targetPoint" />
          </mxGeometry>
        </mxCell>
        <mxCell id="ZAjExNN5BYccUUgoJWdT-14" value="" style="endArrow=classic;html=1;rounded=0;" parent="1" edge="1">
          <mxGeometry width="50" height="50" relative="1" as="geometry">
            <mxPoint x="640" y="310" as="sourcePoint" />
            <mxPoint x="641" y="383" as="targetPoint" />
          </mxGeometry>
        </mxCell>
        <mxCell id="ZAjExNN5BYccUUgoJWdT-15" value="" style="endArrow=classic;html=1;rounded=0;" parent="1" edge="1">
          <mxGeometry width="50" height="50" relative="1" as="geometry">
            <mxPoint x="480" y="250" as="sourcePoint" />
            <mxPoint x="480" y="280" as="targetPoint" />
          </mxGeometry>
        </mxCell>
        <mxCell id="ZAjExNN5BYccUUgoJWdT-16" value="" style="endArrow=classic;html=1;rounded=0;" parent="1" edge="1">
          <mxGeometry width="50" height="50" relative="1" as="geometry">
            <mxPoint x="480" y="160" as="sourcePoint" />
            <mxPoint x="480" y="190" as="targetPoint" />
          </mxGeometry>
        </mxCell>
        <mxCell id="ZAjExNN5BYccUUgoJWdT-17" value="" style="endArrow=classic;html=1;rounded=0;" parent="1" edge="1">
          <mxGeometry width="50" height="50" relative="1" as="geometry">
            <mxPoint x="550" y="-40" as="sourcePoint" />
            <mxPoint x="550" y="-10" as="targetPoint" />
          </mxGeometry>
        </mxCell>
        <mxCell id="ZAjExNN5BYccUUgoJWdT-18" value="" style="endArrow=classic;html=1;rounded=0;exitX=0.5;exitY=1;exitDx=0;exitDy=0;entryX=0.5;entryY=0;entryDx=0;entryDy=0;" parent="1" source="ZAjExNN5BYccUUgoJWdT-3" target="ZAjExNN5BYccUUgoJWdT-4" edge="1">
          <mxGeometry width="50" height="50" relative="1" as="geometry">
            <mxPoint x="640" y="40" as="sourcePoint" />
            <mxPoint x="690" y="-10" as="targetPoint" />
          </mxGeometry>
        </mxCell>
        <mxCell id="ZAjExNN5BYccUUgoJWdT-20" value="" style="endArrow=none;html=1;rounded=0;exitX=1;exitY=0.5;exitDx=0;exitDy=0;" parent="1" source="ZAjExNN5BYccUUgoJWdT-4" edge="1">
          <mxGeometry width="50" height="50" relative="1" as="geometry">
            <mxPoint x="580" y="80" as="sourcePoint" />
            <mxPoint x="640" y="75" as="targetPoint" />
          </mxGeometry>
        </mxCell>
        <mxCell id="ZAjExNN5BYccUUgoJWdT-21" value="" style="endArrow=none;html=1;rounded=0;entryX=0;entryY=0.5;entryDx=0;entryDy=0;" parent="1" target="ZAjExNN5BYccUUgoJWdT-4" edge="1">
          <mxGeometry width="50" height="50" relative="1" as="geometry">
            <mxPoint x="460" y="75" as="sourcePoint" />
            <mxPoint x="490" y="40" as="targetPoint" />
          </mxGeometry>
        </mxCell>
        <mxCell id="ZAjExNN5BYccUUgoJWdT-22" value="" style="endArrow=classic;html=1;rounded=0;entryX=0.425;entryY=0.075;entryDx=0;entryDy=0;entryPerimeter=0;" parent="1" target="ZAjExNN5BYccUUgoJWdT-7" edge="1">
          <mxGeometry width="50" height="50" relative="1" as="geometry">
            <mxPoint x="640" y="70" as="sourcePoint" />
            <mxPoint x="700" y="30" as="targetPoint" />
          </mxGeometry>
        </mxCell>
        <mxCell id="ZAjExNN5BYccUUgoJWdT-23" value="" style="endArrow=classic;html=1;rounded=0;entryX=0.313;entryY=0.025;entryDx=0;entryDy=0;entryPerimeter=0;" parent="1" target="ZAjExNN5BYccUUgoJWdT-5" edge="1">
          <mxGeometry width="50" height="50" relative="1" as="geometry">
            <mxPoint x="460" y="70" as="sourcePoint" />
            <mxPoint x="510" y="30" as="targetPoint" />
          </mxGeometry>
        </mxCell>
        <mxCell id="ZAjExNN5BYccUUgoJWdT-24" value="" style="endArrow=classic;html=1;rounded=0;entryX=0.5;entryY=0;entryDx=0;entryDy=0;" parent="1" target="ZAjExNN5BYccUUgoJWdT-2" edge="1">
          <mxGeometry width="50" height="50" relative="1" as="geometry">
            <mxPoint x="555" y="-130" as="sourcePoint" />
            <mxPoint x="590" y="-190" as="targetPoint" />
          </mxGeometry>
        </mxCell>
        <mxCell id="ZAjExNN5BYccUUgoJWdT-25" value="" style="ellipse;whiteSpace=wrap;html=1;aspect=fixed;fillColor=#000000;" parent="1" vertex="1">
          <mxGeometry x="545" y="-140" width="20" height="20" as="geometry" />
        </mxCell>
        <mxCell id="ZAjExNN5BYccUUgoJWdT-26" value="" style="endArrow=classic;html=1;rounded=0;" parent="1" edge="1">
          <mxGeometry width="50" height="50" relative="1" as="geometry">
            <mxPoint x="480" y="440" as="sourcePoint" />
            <mxPoint x="480" y="480" as="targetPoint" />
          </mxGeometry>
        </mxCell>
        <mxCell id="ZAjExNN5BYccUUgoJWdT-27" value="" style="ellipse;html=1;shape=endState;fillColor=#000000;strokeColor=#ff0000;" parent="1" vertex="1">
          <mxGeometry x="468" y="480" width="22" height="20" as="geometry" />
        </mxCell>
        <mxCell id="ZAjExNN5BYccUUgoJWdT-28" value="Oui" style="text;html=1;align=center;verticalAlign=middle;resizable=0;points=[];autosize=1;strokeColor=none;fillColor=none;" parent="1" vertex="1">
          <mxGeometry x="440" y="350" width="40" height="30" as="geometry" />
        </mxCell>
        <mxCell id="ZAjExNN5BYccUUgoJWdT-29" value="Non" style="text;html=1;align=center;verticalAlign=middle;resizable=0;points=[];autosize=1;strokeColor=none;fillColor=none;" parent="1" vertex="1">
          <mxGeometry x="640" y="328" width="50" height="30" as="geometry" />
        </mxCell>
        <mxCell id="ZAjExNN5BYccUUgoJWdT-30" value="Oui" style="text;html=1;align=center;verticalAlign=middle;resizable=0;points=[];autosize=1;strokeColor=none;fillColor=none;" parent="1" vertex="1">
          <mxGeometry x="460" y="48" width="40" height="30" as="geometry" />
        </mxCell>
        <mxCell id="ZAjExNN5BYccUUgoJWdT-31" value="Non" style="text;html=1;align=center;verticalAlign=middle;resizable=0;points=[];autosize=1;strokeColor=none;fillColor=none;" parent="1" vertex="1">
          <mxGeometry x="575" y="48" width="50" height="30" as="geometry" />
        </mxCell>
        <mxCell id="08N1hVpITittfZkWKEES-1" value="" style="rhombus;whiteSpace=wrap;html=1;" vertex="1" parent="1">
          <mxGeometry x="565" y="294" width="30" height="32" as="geometry" />
        </mxCell>
        <mxCell id="08N1hVpITittfZkWKEES-3" value="" style="endArrow=classic;html=1;rounded=0;entryX=0;entryY=0.5;entryDx=0;entryDy=0;" edge="1" parent="1" target="08N1hVpITittfZkWKEES-1">
          <mxGeometry width="50" height="50" relative="1" as="geometry">
            <mxPoint x="540" y="310" as="sourcePoint" />
            <mxPoint x="590" y="260" as="targetPoint" />
          </mxGeometry>
        </mxCell>
        <mxCell id="08N1hVpITittfZkWKEES-5" value="" style="endArrow=none;html=1;rounded=0;" edge="1" parent="1">
          <mxGeometry width="50" height="50" relative="1" as="geometry">
            <mxPoint x="480" y="360" as="sourcePoint" />
            <mxPoint x="580" y="360" as="targetPoint" />
          </mxGeometry>
        </mxCell>
        <mxCell id="08N1hVpITittfZkWKEES-7" value="" style="endArrow=none;html=1;rounded=0;entryX=0.5;entryY=1;entryDx=0;entryDy=0;" edge="1" parent="1" target="08N1hVpITittfZkWKEES-1">
          <mxGeometry width="50" height="50" relative="1" as="geometry">
            <mxPoint x="580" y="360" as="sourcePoint" />
            <mxPoint x="630" y="310" as="targetPoint" />
          </mxGeometry>
        </mxCell>
      </root>
    </mxGraphModel>
  </diagram>
</mxfile>
